<svg xmlns="http://www.w3.org/2000/svg" viewBox="0 0 40 40"><defs><style>.cls-1{fill:none;stroke:#ccc;}.cls-2{fill:#ce0e2d;fill-rule:evenodd;}</style></defs><g id="图层_2" data-name="图层 2"><g id="图层_1-2" data-name="图层 1"><g id="高保真"><g id="_1.其他方式登录" data-name="1.其他方式登录"><g id="hnid_login_hw" data-name="hnid login hw"><circle id="Oval-3-Copy-2" class="cls-1" cx="20" cy="20" r="19.5"/><path id="hw" class="cls-2" d="M17.39,26.75s.09,0,.11.07a.09.09,0,0,1,0,.1h0a20.54,20.54,0,0,1-4.3,2.51c-1.55.37-3.05-.84-3.93-2.4h0Zm5.25-.05,8,.28c-1.79,3.05-3.86,2.35-3.86,2.35a20.62,20.62,0,0,1-4.2-2.46s0-.11,0-.11.09-.06.09-.06ZM7.23,20s3.25,1.71,6.41,3.55l.5.29c1.24.73,2.44,1.46,3.4,2.1h0s.07.06,0,.12a.11.11,0,0,1-.08.05h-6a4.81,4.81,0,0,1-4-2.7A4.64,4.64,0,0,1,7.23,20Zm25.54,0a4.72,4.72,0,0,1-.18,3.37A4.66,4.66,0,0,1,30,25.78a5,5,0,0,1-1.38.32H22.51c-.05,0-.09-.06-.09-.06a.1.1,0,0,1,0-.11c1.09-.73,2.49-1.58,3.9-2.4l.5-.29C29.86,21.53,32.77,20,32.77,20ZM29,13.42s2.25,2.05,2.11,4.26a3.83,3.83,0,0,1-1.25,2.54l-.06.05h0c-2,1.91-6.74,4.31-7.88,4.87a.11.11,0,0,1-.11,0,.1.1,0,0,1,0-.12A58.38,58.38,0,0,1,29,13.42Zm-18.3-.09a58.52,58.52,0,0,1,7.47,11.58.08.08,0,0,1,0,.09s-.09,0-.11,0c-1.15-.55-6.1-2.95-8.14-4.86a3.75,3.75,0,0,1-1.36-2.57C8.38,15.46,10.72,13.33,10.72,13.33ZM21.9,10c.65.09,1.26.24,1.26.24a3.68,3.68,0,0,1,2.64,2.44,5.22,5.22,0,0,1,0,2.52c-.7,3.09-4.16,8.16-4.93,9.26h0a.09.09,0,0,1-.11,0,.11.11,0,0,1-.06-.09h0C19.53,13,21.9,10,21.9,10Zm-3.8,0s2.36,3,1.21,14.4a.11.11,0,0,1-.08.1s0,0-.09,0c-.75-1.07-4.22-6.17-4.93-9.27a4.78,4.78,0,0,1,0-2.52,3.68,3.68,0,0,1,2.62-2.44S17.75,10,18.1,10Z"/></g></g></g></g></g></svg>