<svg id="图层_1" data-name="图层 1" xmlns="http://www.w3.org/2000/svg" viewBox="0 0 737.01 737.01"><title>icon-定-已转曲</title><path d="M368.44,361.39c-82.26,0-149.18-66.92-149.18-149.17S286.18,63,368.44,63,517.61,130,517.61,212.22,450.69,361.39,368.44,361.39Zm0-270A120.83,120.83,0,1,0,489.26,212.22,121,121,0,0,0,368.44,91.39Z"/><path d="M631.2,674h0A14.17,14.17,0,0,1,617,659.77l.14-87.38c0-61.87-50.79-112.22-113.22-112.22H233.21C170.78,460.17,120,510.52,120,572.41l-.13,87.4A14.18,14.18,0,0,1,105.67,674h0A14.16,14.16,0,0,1,91.5,659.77l.14-87.38c0-77.5,63.51-140.57,141.57-140.57H503.94c78.06,0,141.57,63.07,141.57,140.59l-.14,87.4A14.17,14.17,0,0,1,631.2,674Z"/></svg>